<svg xmlns="http://www.w3.org/2000/svg" xmlns:xlink="http://www.w3.org/1999/xlink" width="944" zoomAndPan="magnify" viewBox="0 0 708.75 567.000005" height="755" preserveAspectRatio="xMidYMid meet" version="1.0"><defs><filter x="0%" y="0%" width="100%" height="100%" id="04f4f07b32"><feColorMatrix values="0 0 0 0 1 0 0 0 0 1 0 0 0 0 1 0 0 0 1 0" color-interpolation-filters="sRGB"/></filter><mask id="9bff81d496"><g filter="url(#04f4f07b32)"><rect x="-70.875" width="850.5" fill="#000000" y="-56.700001" height="680.400006" fill-opacity="0.6078"/></g></mask><clipPath id="7b70f53a5d"><path d="M 209 0.273438 L 371 0.273438 L 371 97 L 209 97 Z M 209 0.273438 " clip-rule="nonzero"/></clipPath><clipPath id="72c70b929f"><path d="M 214 487 L 365 487 L 365 508.054688 L 214 508.054688 Z M 214 487 " clip-rule="nonzero"/></clipPath><clipPath id="235a8d2070"><path d="M 0.808594 395 L 28 395 L 28 421 L 0.808594 421 Z M 0.808594 395 " clip-rule="nonzero"/></clipPath><clipPath id="6bc5498472"><path d="M 0.808594 352 L 29 352 L 29 385 L 0.808594 385 Z M 0.808594 352 " clip-rule="nonzero"/></clipPath><clipPath id="dab05e9312"><rect x="0" width="566" y="0" height="509"/></clipPath></defs><g mask="url(#9bff81d496)"><g transform="matrix(1, 0, 0, 1, 142, 29)"><g clip-path="url(#dab05e9312)"><path fill="#465e7d" d="M 334.285156 123.328125 L 318.496094 123.328125 L 320.359375 128.914062 L 336.152344 128.914062 Z M 334.285156 123.328125 " fill-opacity="1" fill-rule="nonzero"/><path fill="#465e7d" d="M 307.464844 123.328125 L 295 123.328125 L 295 128.914062 L 309.328125 128.914062 Z M 307.464844 123.328125 " fill-opacity="1" fill-rule="nonzero"/><path fill="#465e7d" d="M 264.839844 144.964844 L 284.535156 144.964844 L 284.535156 139.382812 L 266.707031 139.382812 Z M 264.839844 144.964844 " fill-opacity="1" fill-rule="nonzero"/><path fill="#465e7d" d="M 295 139.382812 L 295 144.964844 L 314.691406 144.964844 L 312.824219 139.382812 Z M 295 139.382812 " fill-opacity="1" fill-rule="nonzero"/><path fill="#465e7d" d="M 270.207031 128.914062 L 284.535156 128.914062 L 284.535156 123.328125 L 272.070312 123.328125 Z M 270.207031 128.914062 " fill-opacity="1" fill-rule="nonzero"/><g clip-path="url(#7b70f53a5d)"><path fill="#465e7d" d="M 370.382812 0.273438 L 209.15625 0.273438 L 209.15625 96.808594 L 370.386719 96.808594 L 370.386719 0.273438 Z M 359.386719 80.644531 C 359.386719 83.53125 357.046875 85.878906 354.152344 85.878906 L 225.378906 85.878906 C 222.484375 85.878906 220.144531 83.53125 220.144531 80.644531 L 220.144531 16.4375 C 220.144531 13.546875 222.484375 11.203125 225.378906 11.203125 L 354.148438 11.203125 C 357.042969 11.203125 359.382812 13.546875 359.382812 16.4375 L 359.382812 80.644531 Z M 359.386719 80.644531 " fill-opacity="1" fill-rule="nonzero"/></g><path fill="#465e7d" d="M 207.03125 144.964844 L 226.976562 144.964844 L 228.839844 139.382812 L 209.828125 139.382812 Z M 207.03125 144.964844 " fill-opacity="1" fill-rule="nonzero"/><path fill="#465e7d" d="M 238.007812 144.964844 L 253.808594 144.964844 L 255.671875 139.382812 L 239.878906 139.382812 Z M 238.007812 144.964844 " fill-opacity="1" fill-rule="nonzero"/><path fill="#465e7d" d="M 215.082031 128.914062 L 232.34375 128.914062 L 234.210938 123.328125 L 217.882812 123.328125 Z M 215.082031 128.914062 " fill-opacity="1" fill-rule="nonzero"/><path fill="#465e7d" d="M 243.378906 128.914062 L 259.171875 128.914062 L 261.035156 123.328125 L 245.242188 123.328125 Z M 243.378906 128.914062 " fill-opacity="1" fill-rule="nonzero"/><path fill="#465e7d" d="M 230.609375 75.40625 L 348.917969 75.40625 L 348.917969 21.671875 L 230.609375 21.671875 Z M 285.839844 33.785156 C 285.839844 31.671875 287.109375 29.757812 289.0625 28.949219 C 291.023438 28.140625 293.269531 28.585938 294.765625 30.078125 L 310.855469 46.128906 C 311.839844 47.113281 312.394531 48.441406 312.394531 49.835938 C 312.394531 51.226562 311.847656 52.5625 310.855469 53.542969 L 294.765625 69.59375 C 293.765625 70.589844 292.433594 71.121094 291.070312 71.121094 C 290.394531 71.121094 289.710938 70.988281 289.0625 70.722656 C 287.109375 69.910156 285.839844 68 285.839844 65.886719 Z M 285.839844 33.785156 " fill-opacity="1" fill-rule="nonzero"/><path fill="#465e7d" d="M 323.859375 139.382812 L 325.722656 144.964844 L 341.515625 144.964844 L 339.652344 139.382812 Z M 323.859375 139.382812 " fill-opacity="1" fill-rule="nonzero"/><path fill="#465e7d" d="M 296.304688 46.402344 L 296.304688 53.273438 L 299.753906 49.839844 Z M 296.304688 46.402344 " fill-opacity="1" fill-rule="nonzero"/><path fill="#465e7d" d="M 206.816406 107.277344 L 182.320312 146.351562 L 182.320312 161.015625 L 397.207031 161.015625 L 397.207031 146.351562 L 372.710938 107.277344 Z M 385.429688 152.945312 C 384.480469 154.492188 382.792969 155.433594 380.976562 155.433594 L 348.800781 155.433594 C 348.796875 155.433594 348.789062 155.433594 348.785156 155.433594 C 348.78125 155.433594 348.773438 155.433594 348.769531 155.433594 L 321.972656 155.433594 C 321.964844 155.433594 321.960938 155.433594 321.957031 155.433594 C 321.949219 155.433594 321.945312 155.433594 321.941406 155.433594 L 257.589844 155.433594 C 257.585938 155.433594 257.582031 155.433594 257.574219 155.433594 C 257.570312 155.433594 257.566406 155.433594 257.558594 155.433594 L 230.761719 155.433594 C 230.757812 155.433594 230.75 155.433594 230.746094 155.433594 C 230.742188 155.433594 230.734375 155.433594 230.730469 155.433594 L 198.558594 155.433594 C 196.742188 155.433594 195.058594 154.492188 194.105469 152.945312 C 193.148438 151.402344 193.0625 149.472656 193.878906 147.847656 L 209.976562 115.746094 C 210.859375 113.976562 212.675781 112.859375 214.65625 112.859375 L 364.882812 112.859375 C 366.859375 112.859375 368.675781 113.972656 369.558594 115.746094 L 385.65625 147.847656 C 386.472656 149.472656 386.390625 151.402344 385.429688 152.945312 Z M 385.429688 152.945312 " fill-opacity="1" fill-rule="nonzero"/><path fill="#465e7d" d="M 352.554688 144.964844 L 372.5 144.964844 L 369.707031 139.382812 L 350.691406 139.382812 Z M 352.554688 144.964844 " fill-opacity="1" fill-rule="nonzero"/><path fill="#465e7d" d="M 361.652344 123.328125 L 345.320312 123.328125 L 347.1875 128.914062 L 364.453125 128.914062 Z M 361.652344 123.328125 " fill-opacity="1" fill-rule="nonzero"/><path fill="#465e7d" d="M 62.160156 251.394531 C 62.773438 251.628906 63.402344 251.738281 64.023438 251.738281 C 66.128906 251.738281 68.117188 250.457031 68.917969 248.367188 C 81.742188 214.75 102.582031 183.980469 129.167969 159.390625 C 131.289062 157.429688 131.425781 154.113281 129.460938 151.996094 C 127.496094 149.863281 124.183594 149.742188 122.070312 151.699219 C 94.292969 177.382812 72.539062 209.515625 59.136719 244.636719 C 58.105469 247.335938 59.457031 250.363281 62.160156 251.394531 Z M 62.160156 251.394531 " fill-opacity="1" fill-rule="nonzero"/><g clip-path="url(#72c70b929f)"><path fill="#465e7d" d="M 358.011719 487.609375 C 313.949219 500.847656 265.59375 500.847656 221.519531 487.609375 C 218.710938 486.785156 215.828125 488.355469 215 491.113281 C 214.171875 493.882812 215.742188 496.804688 218.507812 497.636719 C 241.519531 504.546875 265.496094 508.054688 289.769531 508.054688 C 314.042969 508.054688 338.015625 504.546875 361.023438 497.636719 C 363.789062 496.804688 365.359375 493.882812 364.53125 491.113281 C 363.699219 488.351562 360.808594 486.785156 358.011719 487.609375 Z M 358.011719 487.609375 " fill-opacity="1" fill-rule="nonzero"/></g><path fill="#465e7d" d="M 510.238281 247.382812 C 511.039062 249.457031 513.019531 250.734375 515.117188 250.734375 C 515.746094 250.734375 516.386719 250.621094 517.003906 250.378906 C 519.703125 249.335938 521.039062 246.304688 519.996094 243.609375 C 506.949219 209.875 486.097656 178.816406 459.695312 153.789062 C 457.597656 151.804688 454.292969 151.890625 452.304688 153.988281 C 450.316406 156.085938 450.402344 159.402344 452.5 161.390625 C 477.78125 185.351562 497.746094 215.085938 510.238281 247.382812 Z M 510.238281 247.382812 " fill-opacity="1" fill-rule="nonzero"/><path fill="#465e7d" d="M 11.898438 430.882812 C 17.945312 441.007812 26.097656 449.738281 35.84375 456.34375 C 33.238281 447.964844 31.09375 439.472656 29.5 430.882812 Z M 11.898438 430.882812 " fill-opacity="1" fill-rule="nonzero"/><g clip-path="url(#235a8d2070)"><path fill="#465e7d" d="M 25.859375 395.359375 L 0.847656 395.359375 C 1.421875 404.167969 3.375 412.601562 6.59375 420.414062 L 27.796875 420.414062 C 26.667969 412.132812 26.058594 403.765625 25.859375 395.359375 Z M 25.859375 395.359375 " fill-opacity="1" fill-rule="nonzero"/></g><path fill="#465e7d" d="M 16.675781 342.25 L 30.96875 342.25 C 32.324219 336.074219 33.957031 329.960938 35.84375 323.898438 C 28.460938 328.902344 22.027344 335.140625 16.675781 342.25 Z M 16.675781 342.25 " fill-opacity="1" fill-rule="nonzero"/><path fill="#465e7d" d="M 49.382812 463.726562 C 57.527344 467.195312 66.371094 469.285156 75.621094 469.882812 L 75.621094 430.878906 L 40.179688 430.878906 C 42.355469 442.015625 45.425781 452.984375 49.382812 463.726562 Z M 49.382812 463.726562 " fill-opacity="1" fill-rule="nonzero"/><path fill="#465e7d" d="M 38.394531 420.414062 L 75.621094 420.414062 L 75.621094 395.359375 L 36.328125 395.359375 C 36.535156 403.769531 37.207031 412.132812 38.394531 420.414062 Z M 38.394531 420.414062 " fill-opacity="1" fill-rule="nonzero"/><path fill="#465e7d" d="M 86.085938 310.355469 L 86.085938 342.25 L 120.054688 342.25 C 118.039062 333.546875 115.4375 324.964844 112.324219 316.511719 C 104.183594 313.039062 95.339844 310.957031 86.085938 310.355469 Z M 86.085938 310.355469 " fill-opacity="1" fill-rule="nonzero"/><g clip-path="url(#6bc5498472)"><path fill="#465e7d" d="M 28.9375 352.71875 L 9.941406 352.71875 C 4.765625 362.429688 1.601562 373.335938 0.847656 384.890625 L 25.859375 384.890625 C 26.113281 374.0625 27.132812 363.328125 28.9375 352.71875 Z M 28.9375 352.71875 " fill-opacity="1" fill-rule="nonzero"/></g><path fill="#465e7d" d="M 145.03125 342.25 C 139.683594 335.140625 133.246094 328.898438 125.863281 323.898438 C 127.746094 329.960938 129.378906 336.078125 130.738281 342.25 Z M 145.03125 342.25 " fill-opacity="1" fill-rule="nonzero"/><path fill="#465e7d" d="M 86.085938 352.71875 L 86.085938 384.890625 L 125.382812 384.890625 C 125.121094 374.058594 124.066406 363.316406 122.179688 352.71875 Z M 86.085938 352.71875 " fill-opacity="1" fill-rule="nonzero"/><path fill="#465e7d" d="M 125.863281 456.339844 C 135.613281 449.734375 143.765625 441 149.808594 430.878906 L 132.210938 430.878906 C 130.621094 439.472656 128.472656 447.957031 125.863281 456.339844 Z M 125.863281 456.339844 " fill-opacity="1" fill-rule="nonzero"/><path fill="#465e7d" d="M 133.90625 420.414062 L 155.109375 420.414062 C 158.328125 412.601562 160.28125 404.167969 160.855469 395.359375 L 135.839844 395.359375 C 135.648438 403.765625 135.039062 412.132812 133.90625 420.414062 Z M 133.90625 420.414062 " fill-opacity="1" fill-rule="nonzero"/><path fill="#465e7d" d="M 132.769531 352.71875 C 134.570312 363.320312 135.589844 374.058594 135.839844 384.890625 L 160.855469 384.890625 C 160.101562 373.335938 156.9375 362.4375 151.765625 352.71875 Z M 132.769531 352.71875 " fill-opacity="1" fill-rule="nonzero"/><path fill="#465e7d" d="M 86.085938 469.882812 C 95.339844 469.28125 104.183594 467.195312 112.324219 463.726562 C 116.28125 452.984375 119.351562 442.015625 121.53125 430.882812 L 86.085938 430.882812 Z M 86.085938 469.882812 " fill-opacity="1" fill-rule="nonzero"/><path fill="#465e7d" d="M 41.652344 342.25 L 75.621094 342.25 L 75.621094 310.355469 C 66.371094 310.953125 57.527344 313.039062 49.382812 316.511719 C 46.269531 324.964844 43.667969 333.546875 41.652344 342.25 Z M 41.652344 342.25 " fill-opacity="1" fill-rule="nonzero"/><path fill="#465e7d" d="M 36.328125 384.890625 L 75.621094 384.890625 L 75.621094 352.71875 L 39.535156 352.71875 C 37.640625 363.316406 36.59375 374.058594 36.328125 384.890625 Z M 36.328125 384.890625 " fill-opacity="1" fill-rule="nonzero"/><path fill="#465e7d" d="M 86.085938 420.414062 L 123.3125 420.414062 C 124.5 412.136719 125.171875 403.769531 125.382812 395.359375 L 86.085938 395.359375 Z M 86.085938 420.414062 " fill-opacity="1" fill-rule="nonzero"/><path fill="#465e7d" d="M 493.851562 317.964844 C 493.851562 323.984375 495.738281 329.714844 499.128906 334.570312 C 505.851562 329.453125 514.230469 326.367188 523.328125 326.367188 C 532.433594 326.367188 540.8125 329.445312 547.539062 334.570312 C 550.929688 329.707031 552.8125 323.980469 552.8125 317.964844 C 552.8125 301.820312 539.589844 288.6875 523.324219 288.6875 C 507.074219 288.691406 493.851562 301.820312 493.851562 317.964844 Z M 493.851562 317.964844 " fill-opacity="1" fill-rule="nonzero"/><path fill="#465e7d" d="M 523.335938 395.394531 C 539.59375 395.394531 552.824219 382.261719 552.824219 366.117188 C 552.824219 349.972656 539.597656 336.839844 523.335938 336.839844 C 507.082031 336.839844 493.851562 349.972656 493.851562 366.117188 C 493.851562 382.261719 507.074219 395.394531 523.335938 395.394531 Z M 523.335938 395.394531 " fill-opacity="1" fill-rule="nonzero"/><path fill="#465e7d" d="M 489.070312 408.628906 C 491.921875 403.34375 495.035156 399.550781 498.054688 396.867188 C 495.355469 394.664062 492.96875 392.09375 490.921875 389.269531 C 489.960938 395.140625 489.347656 401.609375 489.070312 408.628906 Z M 489.070312 408.628906 " fill-opacity="1" fill-rule="nonzero"/><path fill="#465e7d" d="M 558.28125 408.554688 C 557.992188 401.257812 557.339844 394.5625 556.300781 388.523438 C 554.234375 391.523438 551.765625 394.222656 548.972656 396.558594 C 552.109375 399.257812 555.339844 403.113281 558.28125 408.554688 Z M 558.28125 408.554688 " fill-opacity="1" fill-rule="nonzero"/><path fill="#465e7d" d="M 563.832031 422.433594 C 563.863281 422.542969 563.894531 422.660156 563.933594 422.769531 C 563.964844 422.660156 563.996094 422.542969 564.027344 422.4375 C 563.988281 422.4375 563.957031 422.417969 563.921875 422.417969 C 563.890625 422.417969 563.863281 422.433594 563.832031 422.433594 Z M 563.832031 422.433594 " fill-opacity="1" fill-rule="nonzero"/><path fill="#465e7d" d="M 417.570312 396.867188 C 414.871094 394.664062 412.492188 392.097656 410.445312 389.269531 C 409.480469 395.140625 408.863281 401.609375 408.59375 408.628906 C 411.4375 403.34375 414.550781 399.550781 417.570312 396.867188 Z M 417.570312 396.867188 " fill-opacity="1" fill-rule="nonzero"/><path fill="#465e7d" d="M 483.351562 422.433594 C 483.382812 422.542969 483.414062 422.660156 483.449219 422.769531 C 483.480469 422.660156 483.511719 422.542969 483.542969 422.4375 C 483.507812 422.4375 483.476562 422.417969 483.4375 422.417969 C 483.40625 422.417969 483.382812 422.433594 483.351562 422.433594 Z M 483.351562 422.433594 " fill-opacity="1" fill-rule="nonzero"/><path fill="#465e7d" d="M 539.398438 402.484375 C 534.476562 404.644531 529.050781 405.863281 523.335938 405.863281 C 517.773438 405.863281 512.480469 404.722656 507.664062 402.671875 C 501.71875 406.535156 489.84375 419.328125 488.90625 460.128906 L 558.464844 460.128906 C 557.515625 418.769531 545.40625 406.191406 539.398438 402.484375 Z M 539.398438 402.484375 " fill-opacity="1" fill-rule="nonzero"/><path fill="#465e7d" d="M 458.917969 402.484375 C 453.992188 404.644531 448.566406 405.863281 442.851562 405.863281 C 437.289062 405.863281 431.992188 404.722656 427.179688 402.671875 C 421.242188 406.53125 409.363281 419.328125 408.425781 460.136719 L 477.980469 460.136719 C 477.035156 418.765625 464.917969 406.191406 458.917969 402.484375 Z M 458.917969 402.484375 " fill-opacity="1" fill-rule="nonzero"/><path fill="#465e7d" d="M 442.851562 326.375 C 451.957031 326.375 460.332031 329.453125 467.054688 334.578125 C 470.445312 329.71875 472.328125 323.992188 472.328125 317.972656 C 472.328125 301.828125 459.105469 288.691406 442.847656 288.691406 C 426.589844 288.691406 413.363281 301.828125 413.363281 317.972656 C 413.363281 323.992188 415.25 329.71875 418.640625 334.578125 C 425.375 329.453125 433.746094 326.375 442.851562 326.375 Z M 442.851562 326.375 " fill-opacity="1" fill-rule="nonzero"/><path fill="#465e7d" d="M 468.492188 396.558594 C 471.628906 399.257812 474.855469 403.113281 477.804688 408.554688 C 477.515625 401.261719 476.855469 394.566406 475.824219 388.523438 C 473.753906 391.523438 471.28125 394.222656 468.492188 396.558594 Z M 468.492188 396.558594 " fill-opacity="1" fill-rule="nonzero"/><path fill="#465e7d" d="M 472.335938 366.121094 C 472.335938 367.082031 472.289062 368.039062 472.191406 368.992188 C 472.097656 369.945312 471.957031 370.894531 471.769531 371.832031 C 471.578125 372.773438 471.34375 373.703125 471.066406 374.621094 C 470.785156 375.539062 470.460938 376.441406 470.089844 377.328125 C 469.722656 378.210938 469.308594 379.078125 468.851562 379.921875 C 468.398438 380.769531 467.902344 381.589844 467.367188 382.386719 C 466.828125 383.1875 466.253906 383.953125 465.640625 384.695312 C 465.03125 385.4375 464.382812 386.148438 463.699219 386.824219 C 463.015625 387.503906 462.300781 388.144531 461.554688 388.753906 C 460.808594 389.363281 460.035156 389.933594 459.230469 390.464844 C 458.429688 391 457.601562 391.492188 456.75 391.945312 C 455.898438 392.394531 455.027344 392.804688 454.132812 393.171875 C 453.242188 393.539062 452.335938 393.863281 451.410156 394.140625 C 450.488281 394.417969 449.550781 394.652344 448.605469 394.839844 C 447.65625 395.023438 446.703125 395.164062 445.742188 395.257812 C 444.78125 395.355469 443.816406 395.402344 442.851562 395.402344 C 441.886719 395.402344 440.921875 395.355469 439.960938 395.257812 C 439 395.164062 438.046875 395.023438 437.101562 394.839844 C 436.152344 394.652344 435.21875 394.417969 434.292969 394.140625 C 433.371094 393.863281 432.460938 393.539062 431.570312 393.171875 C 430.679688 392.804688 429.804688 392.394531 428.953125 391.945312 C 428.101562 391.492188 427.277344 391 426.472656 390.464844 C 425.671875 389.933594 424.894531 389.363281 424.148438 388.753906 C 423.402344 388.144531 422.6875 387.503906 422.003906 386.824219 C 421.324219 386.148438 420.675781 385.4375 420.0625 384.695312 C 419.449219 383.953125 418.875 383.183594 418.339844 382.386719 C 417.800781 381.589844 417.304688 380.769531 416.851562 379.921875 C 416.394531 379.078125 415.984375 378.210938 415.613281 377.328125 C 415.246094 376.441406 414.917969 375.539062 414.640625 374.621094 C 414.359375 373.703125 414.125 372.773438 413.9375 371.832031 C 413.75 370.894531 413.605469 369.945312 413.511719 368.992188 C 413.417969 368.039062 413.371094 367.082031 413.371094 366.121094 C 413.371094 365.164062 413.417969 364.207031 413.511719 363.253906 C 413.605469 362.296875 413.75 361.351562 413.9375 360.410156 C 414.125 359.46875 414.359375 358.539062 414.640625 357.621094 C 414.917969 356.707031 415.246094 355.804688 415.613281 354.917969 C 415.984375 354.03125 416.394531 353.164062 416.851562 352.320312 C 417.304688 351.472656 417.800781 350.652344 418.339844 349.855469 C 418.875 349.058594 419.449219 348.289062 420.0625 347.546875 C 420.675781 346.804688 421.324219 346.097656 422.003906 345.417969 C 422.6875 344.742188 423.402344 344.097656 424.148438 343.488281 C 424.894531 342.878906 425.671875 342.308594 426.472656 341.777344 C 427.277344 341.246094 428.101562 340.753906 428.953125 340.300781 C 429.804688 339.847656 430.679688 339.4375 431.570312 339.070312 C 432.460938 338.703125 433.371094 338.382812 434.292969 338.105469 C 435.21875 337.824219 436.152344 337.59375 437.101562 337.40625 C 438.046875 337.21875 439 337.078125 439.960938 336.984375 C 440.921875 336.890625 441.886719 336.84375 442.851562 336.84375 C 443.816406 336.84375 444.78125 336.890625 445.742188 336.984375 C 446.703125 337.078125 447.65625 337.21875 448.605469 337.40625 C 449.550781 337.59375 450.488281 337.824219 451.410156 338.105469 C 452.335938 338.382812 453.242188 338.703125 454.132812 339.070312 C 455.027344 339.4375 455.898438 339.847656 456.75 340.300781 C 457.601562 340.753906 458.429688 341.246094 459.230469 341.777344 C 460.035156 342.308594 460.808594 342.878906 461.554688 343.488281 C 462.300781 344.097656 463.015625 344.742188 463.699219 345.417969 C 464.382812 346.097656 465.03125 346.804688 465.640625 347.546875 C 466.253906 348.289062 466.828125 349.058594 467.367188 349.855469 C 467.902344 350.652344 468.398438 351.472656 468.851562 352.320312 C 469.308594 353.164062 469.722656 354.03125 470.089844 354.917969 C 470.460938 355.804688 470.785156 356.703125 471.066406 357.621094 C 471.34375 358.539062 471.578125 359.46875 471.769531 360.410156 C 471.957031 361.351562 472.097656 362.296875 472.191406 363.253906 C 472.289062 364.207031 472.335938 365.164062 472.335938 366.121094 Z M 472.335938 366.121094 " fill-opacity="1" fill-rule="nonzero"/></g></g></g></svg>