<svg xmlns="http://www.w3.org/2000/svg" xmlns:xlink="http://www.w3.org/1999/xlink" width="944" zoomAndPan="magnify" viewBox="0 0 708.75 567.000005" height="755" preserveAspectRatio="xMidYMid meet" version="1.0"><defs><filter x="0%" y="0%" width="100%" height="100%" id="e5f0f4a853"><feColorMatrix values="0 0 0 0 1 0 0 0 0 1 0 0 0 0 1 0 0 0 1 0" color-interpolation-filters="sRGB"/></filter><mask id="193c1dd19e"><g filter="url(#e5f0f4a853)"><rect x="-70.875" width="850.5" fill="#000000" y="-56.700001" height="680.400006" fill-opacity="0.6078"/></g></mask><clipPath id="960082eef7"><path d="M 411 112 L 433 112 L 433 319 L 411 319 Z M 411 112 " clip-rule="nonzero"/></clipPath><clipPath id="013c03693c"><path d="M 0.773438 66 L 75 66 L 75 320 L 0.773438 320 Z M 0.773438 66 " clip-rule="nonzero"/></clipPath><clipPath id="a964f33e40"><path d="M 232 75 L 433 75 L 433 277 L 232 277 Z M 232 75 " clip-rule="nonzero"/></clipPath><clipPath id="2b3bf7208f"><rect x="0" width="433" y="0" height="451"/></clipPath><mask id="98090c45d4"><g filter="url(#e5f0f4a853)"><rect x="-70.875" width="850.5" fill="#000000" y="-56.700001" height="680.400006" fill-opacity="0.7176"/></g></mask><clipPath id="ad27f67deb"><path d="M 4.226562 0.558594 L 97 0.558594 L 97 126 L 4.226562 126 Z M 4.226562 0.558594 " clip-rule="nonzero"/></clipPath><clipPath id="03cd2c0a14"><path d="M 100 79 L 188.292969 79 L 188.292969 146.855469 L 100 146.855469 Z M 100 79 " clip-rule="nonzero"/></clipPath><clipPath id="8c491ca8d9"><rect x="0" width="193" y="0" height="151"/></clipPath></defs><g mask="url(#193c1dd19e)"><g transform="matrix(1, 0, 0, 1, 275, 115)"><g clip-path="url(#2b3bf7208f)"><g clip-path="url(#960082eef7)"><path fill="#465e7d" d="M 430.945312 318.050781 L 421.835938 313.953125 C 423.570312 310.070312 425.191406 306.136719 426.695312 302.160156 C 428.195312 298.179688 429.578125 294.160156 430.84375 290.097656 C 432.109375 286.039062 433.253906 281.941406 434.273438 277.8125 C 435.296875 273.683594 436.195312 269.53125 436.96875 265.347656 C 437.746094 261.164062 438.398438 256.964844 438.921875 252.742188 C 439.449219 248.523438 439.851562 244.289062 440.125 240.046875 C 440.402344 235.800781 440.550781 231.550781 440.574219 227.296875 C 440.597656 223.046875 440.496094 218.792969 440.269531 214.546875 C 440.039062 210.300781 439.6875 206.0625 439.207031 201.835938 C 438.726562 197.609375 438.125 193.402344 437.394531 189.210938 C 436.664062 185.019531 435.8125 180.855469 434.839844 176.714844 C 433.863281 172.574219 432.765625 168.46875 431.546875 164.394531 C 430.328125 160.320312 428.988281 156.285156 427.527344 152.289062 C 426.070312 148.292969 424.496094 144.34375 422.804688 140.441406 C 421.109375 136.539062 419.304688 132.691406 417.382812 128.898438 C 415.460938 125.101562 413.429688 121.367188 411.289062 117.691406 L 419.910156 112.644531 C 422.152344 116.492188 424.28125 120.398438 426.289062 124.371094 C 428.300781 128.34375 430.191406 132.371094 431.964844 136.453125 C 433.734375 140.539062 435.382812 144.671875 436.910156 148.851562 C 438.4375 153.035156 439.839844 157.257812 441.113281 161.523438 C 442.390625 165.785156 443.539062 170.085938 444.5625 174.417969 C 445.582031 178.75 446.476562 183.109375 447.238281 187.496094 C 448 191.882812 448.632812 196.285156 449.132812 200.710938 C 449.636719 205.132812 450.007812 209.566406 450.246094 214.011719 C 450.484375 218.457031 450.589844 222.90625 450.566406 227.359375 C 450.542969 231.808594 450.382812 236.257812 450.097656 240.699219 C 449.808594 245.140625 449.386719 249.570312 448.835938 253.988281 C 448.285156 258.40625 447.605469 262.804688 446.792969 267.179688 C 445.980469 271.558594 445.039062 275.90625 443.96875 280.226562 C 442.898438 284.550781 441.703125 288.835938 440.378906 293.085938 C 439.054688 297.335938 437.605469 301.542969 436.03125 305.707031 C 434.460938 309.871094 432.765625 313.984375 430.945312 318.050781 Z M 430.945312 318.050781 " fill-opacity="1" fill-rule="nonzero"/></g><path fill="#465e7d" d="M 395.382812 94.210938 C 395.074219 93.8125 394.800781 93.457031 394.484375 93.113281 C 392.636719 90.765625 390.742188 88.460938 388.796875 86.195312 C 386.855469 83.929688 384.863281 81.703125 382.828125 79.519531 C 380.792969 77.335938 378.710938 75.199219 376.585938 73.101562 C 374.460938 71.003906 372.292969 68.953125 370.082031 66.945312 C 367.871094 64.941406 365.621094 62.980469 363.328125 61.070312 C 361.035156 59.15625 358.703125 57.292969 356.332031 55.476562 C 353.964844 53.664062 351.558594 51.898438 349.113281 50.183594 C 346.667969 48.46875 344.191406 46.804688 341.679688 45.191406 C 339.167969 43.582031 336.621094 42.023438 334.042969 40.515625 C 331.464844 39.011719 328.859375 37.558594 326.21875 36.164062 C 323.582031 34.765625 320.914062 33.425781 318.222656 32.140625 C 315.527344 30.851562 312.808594 29.625 310.0625 28.453125 C 307.316406 27.277344 304.546875 26.164062 301.757812 25.105469 C 298.964844 24.050781 296.152344 23.050781 293.320312 22.113281 C 290.488281 21.171875 287.636719 20.292969 284.765625 19.46875 C 281.894531 18.648438 279.007812 17.886719 276.109375 17.1875 C 273.207031 16.488281 270.292969 15.847656 267.363281 15.265625 C 264.433594 14.6875 261.496094 14.167969 258.546875 13.714844 C 255.597656 13.257812 252.636719 12.859375 249.671875 12.527344 C 246.707031 12.195312 243.734375 11.921875 240.757812 11.710938 C 237.777344 11.503906 234.796875 11.355469 231.8125 11.269531 C 228.832031 11.183594 225.847656 11.160156 222.863281 11.199219 C 219.878906 11.238281 216.894531 11.339844 213.914062 11.503906 C 210.933594 11.664062 207.957031 11.890625 204.988281 12.175781 C 202.015625 12.464844 199.050781 12.8125 196.09375 13.222656 C 193.136719 13.636719 190.191406 14.105469 187.253906 14.640625 C 184.316406 15.171875 181.394531 15.769531 178.480469 16.421875 C 175.570312 17.078125 172.671875 17.792969 169.789062 18.570312 C 166.90625 19.347656 164.042969 20.183594 161.195312 21.078125 C 158.347656 21.972656 155.519531 22.925781 152.710938 23.941406 C 149.902344 24.953125 147.117188 26.027344 144.355469 27.15625 C 141.589844 28.285156 138.851562 29.46875 136.140625 30.714844 L 131.960938 21.628906 C 134.800781 20.328125 137.664062 19.089844 140.550781 17.90625 C 143.441406 16.726562 146.351562 15.605469 149.289062 14.546875 C 152.222656 13.488281 155.179688 12.488281 158.15625 11.554688 C 161.132812 10.617188 164.128906 9.742188 167.140625 8.929688 C 170.152344 8.117188 173.183594 7.371094 176.226562 6.683594 C 179.273438 6 182.328125 5.375 185.398438 4.816406 C 188.46875 4.257812 191.550781 3.765625 194.640625 3.335938 C 197.730469 2.90625 200.832031 2.539062 203.9375 2.238281 C 207.042969 1.9375 210.152344 1.699219 213.269531 1.527344 C 216.386719 1.355469 219.503906 1.25 222.625 1.207031 C 225.742188 1.164062 228.863281 1.1875 231.984375 1.277344 C 235.101562 1.363281 238.21875 1.515625 241.332031 1.734375 C 244.445312 1.953125 247.550781 2.234375 250.652344 2.582031 C 253.753906 2.929688 256.847656 3.339844 259.929688 3.816406 C 263.015625 4.292969 266.089844 4.832031 269.152344 5.433594 C 272.210938 6.039062 275.261719 6.707031 278.292969 7.4375 C 281.328125 8.167969 284.34375 8.960938 287.347656 9.816406 C 290.347656 10.671875 293.328125 11.589844 296.292969 12.570312 C 299.253906 13.550781 302.195312 14.59375 305.113281 15.695312 C 308.035156 16.796875 310.929688 17.960938 313.800781 19.183594 C 316.671875 20.40625 319.515625 21.691406 322.332031 23.03125 C 325.152344 24.375 327.941406 25.773438 330.699219 27.230469 C 333.457031 28.6875 336.1875 30.203125 338.882812 31.773438 C 341.578125 33.347656 344.242188 34.972656 346.871094 36.65625 C 349.5 38.335938 352.09375 40.074219 354.648438 41.863281 C 357.207031 43.652344 359.722656 45.496094 362.203125 47.390625 C 364.683594 49.285156 367.121094 51.230469 369.519531 53.226562 C 371.921875 55.226562 374.277344 57.269531 376.589844 59.363281 C 378.902344 61.460938 381.171875 63.601562 383.398438 65.789062 C 385.621094 67.980469 387.800781 70.214844 389.933594 72.492188 C 392.0625 74.773438 394.148438 77.097656 396.183594 79.460938 C 398.21875 81.828125 400.203125 84.238281 402.136719 86.6875 C 402.402344 86.972656 402.808594 87.492188 403.21875 88.003906 Z M 395.382812 94.210938 " fill-opacity="1" fill-rule="nonzero"/><g clip-path="url(#013c03693c)"><path fill="#465e7d" d="M 21.410156 319.886719 C 20.222656 317.289062 19.082031 314.671875 17.992188 312.03125 C 16.902344 309.390625 15.863281 306.730469 14.875 304.050781 C 13.886719 301.371094 12.953125 298.675781 12.066406 295.957031 C 11.179688 293.242188 10.347656 290.511719 9.566406 287.765625 C 8.785156 285.015625 8.054688 282.253906 7.378906 279.480469 C 6.703125 276.707031 6.078125 273.917969 5.507812 271.121094 C 4.9375 268.320312 4.421875 265.511719 3.957031 262.695312 C 3.496094 259.875 3.085938 257.050781 2.730469 254.214844 C 2.375 251.382812 2.070312 248.542969 1.824219 245.695312 C 1.574219 242.851562 1.382812 240 1.242188 237.148438 C 1.105469 234.292969 1.019531 231.441406 0.988281 228.582031 C 0.957031 225.726562 0.980469 222.871094 1.058594 220.015625 C 1.136719 217.160156 1.269531 214.308594 1.457031 211.457031 C 1.644531 208.609375 1.882812 205.761719 2.179688 202.921875 C 2.472656 200.082031 2.824219 197.246094 3.226562 194.417969 C 3.628906 191.589844 4.085938 188.769531 4.59375 185.960938 C 5.105469 183.148438 5.667969 180.351562 6.285156 177.5625 C 6.902344 174.773438 7.570312 171.996094 8.292969 169.234375 C 9.015625 166.46875 9.792969 163.722656 10.617188 160.988281 C 11.445312 158.253906 12.324219 155.535156 13.253906 152.835938 C 14.1875 150.136719 15.167969 147.453125 16.199219 144.789062 C 17.230469 142.128906 18.316406 139.484375 19.449219 136.863281 C 20.582031 134.242188 21.765625 131.640625 22.996094 129.066406 C 24.226562 126.488281 25.507812 123.9375 26.839844 121.40625 C 28.167969 118.878906 29.542969 116.378906 30.96875 113.902344 C 32.394531 111.425781 33.863281 108.980469 35.382812 106.558594 C 36.898438 104.140625 38.460938 101.75 40.070312 99.390625 C 41.679688 97.03125 43.332031 94.703125 45.03125 92.40625 C 46.726562 90.109375 48.46875 87.84375 50.25 85.613281 C 52.035156 83.382812 53.859375 81.1875 55.726562 79.023438 C 57.59375 76.863281 59.5 74.738281 61.449219 72.648438 C 63.398438 70.5625 65.382812 68.511719 67.410156 66.496094 L 74.402344 73.59375 C 72.46875 75.515625 70.570312 77.476562 68.707031 79.472656 C 66.847656 81.46875 65.027344 83.5 63.242188 85.5625 C 61.457031 87.628906 59.714844 89.726562 58.011719 91.859375 C 56.304688 93.992188 54.644531 96.152344 53.023438 98.347656 C 51.398438 100.542969 49.820312 102.769531 48.285156 105.023438 C 46.746094 107.277344 45.253906 109.5625 43.804688 111.875 C 42.355469 114.1875 40.949219 116.523438 39.585938 118.890625 C 38.226562 121.253906 36.910156 123.644531 35.640625 126.0625 C 34.371094 128.476562 33.148438 130.917969 31.96875 133.378906 C 30.792969 135.839844 29.664062 138.324219 28.578125 140.828125 C 27.496094 143.335938 26.460938 145.859375 25.476562 148.402344 C 24.488281 150.949219 23.550781 153.511719 22.664062 156.089844 C 21.773438 158.671875 20.933594 161.265625 20.144531 163.878906 C 19.351562 166.492188 18.613281 169.117188 17.921875 171.757812 C 17.230469 174.398438 16.59375 177.050781 16.003906 179.714844 C 15.414062 182.382812 14.875 185.054688 14.386719 187.742188 C 13.898438 190.425781 13.464844 193.121094 13.078125 195.824219 C 12.695312 198.523438 12.359375 201.234375 12.078125 203.949219 C 11.796875 206.660156 11.566406 209.382812 11.386719 212.105469 C 11.207031 214.828125 11.082031 217.554688 11.007812 220.28125 C 10.933594 223.011719 10.910156 225.738281 10.9375 228.46875 C 10.96875 231.195312 11.050781 233.925781 11.183594 236.652344 C 11.316406 239.375 11.5 242.097656 11.734375 244.816406 C 11.972656 247.535156 12.261719 250.25 12.601562 252.957031 C 12.941406 255.667969 13.332031 258.367188 13.773438 261.058594 C 14.214844 263.753906 14.710938 266.4375 15.253906 269.109375 C 15.800781 271.785156 16.394531 274.449219 17.039062 277.101562 C 17.6875 279.75 18.382812 282.390625 19.128906 285.015625 C 19.875 287.640625 20.671875 290.25 21.515625 292.84375 C 22.363281 295.441406 23.257812 298.015625 24.203125 300.578125 C 25.144531 303.140625 26.136719 305.679688 27.179688 308.203125 C 28.21875 310.726562 29.308594 313.230469 30.441406 315.710938 Z M 21.410156 319.886719 " fill-opacity="1" fill-rule="nonzero"/></g><path fill="#465e7d" d="M 415.601562 450.921875 L 35.9375 450.921875 C 34.953125 450.921875 33.980469 450.824219 33.015625 450.632812 C 32.050781 450.441406 31.113281 450.15625 30.203125 449.777344 C 29.292969 449.402344 28.429688 448.941406 27.613281 448.394531 C 26.792969 447.847656 26.035156 447.226562 25.339844 446.53125 C 24.644531 445.832031 24.023438 445.074219 23.476562 444.257812 C 22.929688 443.4375 22.46875 442.574219 22.09375 441.664062 C 21.714844 440.757812 21.429688 439.820312 21.238281 438.855469 C 21.046875 437.886719 20.953125 436.914062 20.953125 435.929688 L 20.953125 196.070312 C 20.953125 195.085938 21.046875 194.113281 21.238281 193.148438 C 21.429688 192.179688 21.714844 191.242188 22.09375 190.335938 C 22.46875 189.425781 22.929688 188.5625 23.476562 187.742188 C 24.023438 186.925781 24.644531 186.167969 25.339844 185.472656 C 26.035156 184.773438 26.792969 184.152344 27.613281 183.605469 C 28.429688 183.058594 29.292969 182.597656 30.203125 182.222656 C 31.113281 181.84375 32.050781 181.558594 33.015625 181.367188 C 33.980469 181.175781 34.953125 181.078125 35.9375 181.078125 L 300.703125 181.078125 L 300.703125 191.074219 L 35.9375 191.074219 C 35.609375 191.074219 35.285156 191.105469 34.964844 191.171875 C 34.640625 191.234375 34.328125 191.328125 34.027344 191.453125 C 33.722656 191.582031 33.433594 191.734375 33.164062 191.917969 C 32.890625 192.097656 32.636719 192.304688 32.40625 192.539062 C 32.171875 192.769531 31.964844 193.023438 31.785156 193.296875 C 31.601562 193.566406 31.449219 193.855469 31.324219 194.160156 C 31.195312 194.460938 31.101562 194.773438 31.039062 195.097656 C 30.972656 195.417969 30.941406 195.742188 30.941406 196.070312 L 30.941406 435.929688 C 30.941406 436.257812 30.972656 436.582031 31.039062 436.902344 C 31.101562 437.226562 31.195312 437.539062 31.324219 437.839844 C 31.449219 438.144531 31.601562 438.433594 31.785156 438.707031 C 31.964844 438.976562 32.171875 439.230469 32.40625 439.460938 C 32.636719 439.695312 32.890625 439.902344 33.164062 440.085938 C 33.433594 440.265625 33.722656 440.421875 34.027344 440.546875 C 34.328125 440.671875 34.640625 440.765625 34.964844 440.832031 C 35.285156 440.894531 35.609375 440.925781 35.9375 440.925781 L 415.601562 440.925781 C 415.929688 440.925781 416.253906 440.894531 416.574219 440.832031 C 416.898438 440.765625 417.210938 440.671875 417.511719 440.546875 C 417.816406 440.421875 418.101562 440.265625 418.375 440.085938 C 418.648438 439.902344 418.902344 439.695312 419.132812 439.460938 C 419.363281 439.230469 419.570312 438.976562 419.753906 438.707031 C 419.9375 438.433594 420.089844 438.144531 420.214844 437.839844 C 420.339844 437.539062 420.4375 437.226562 420.5 436.902344 C 420.5625 436.582031 420.597656 436.257812 420.597656 435.929688 L 420.597656 196.070312 C 420.597656 195.742188 420.5625 195.417969 420.5 195.097656 C 420.4375 194.773438 420.339844 194.460938 420.214844 194.160156 C 420.089844 193.855469 419.9375 193.566406 419.753906 193.296875 C 419.570312 193.023438 419.363281 192.769531 419.132812 192.539062 C 418.902344 192.304688 418.648438 192.097656 418.375 191.917969 C 418.101562 191.734375 417.816406 191.582031 417.511719 191.453125 C 417.210938 191.328125 416.898438 191.234375 416.574219 191.171875 C 416.253906 191.105469 415.929688 191.074219 415.601562 191.074219 L 345.664062 191.074219 L 345.664062 181.078125 L 415.601562 181.078125 C 416.585938 181.078125 417.558594 181.175781 418.523438 181.367188 C 419.488281 181.558594 420.425781 181.84375 421.335938 182.222656 C 422.246094 182.597656 423.109375 183.058594 423.925781 183.605469 C 424.746094 184.152344 425.503906 184.773438 426.199219 185.472656 C 426.894531 186.167969 427.515625 186.925781 428.0625 187.742188 C 428.609375 188.5625 429.070312 189.425781 429.445312 190.335938 C 429.824219 191.242188 430.109375 192.179688 430.300781 193.148438 C 430.492188 194.113281 430.585938 195.085938 430.585938 196.070312 L 430.585938 435.929688 C 430.585938 436.914062 430.492188 437.886719 430.300781 438.855469 C 430.109375 439.820312 429.824219 440.757812 429.445312 441.664062 C 429.070312 442.574219 428.609375 443.4375 428.0625 444.257812 C 427.515625 445.074219 426.894531 445.832031 426.199219 446.53125 C 425.503906 447.226562 424.746094 447.847656 423.925781 448.394531 C 423.109375 448.941406 422.246094 449.402344 421.335938 449.777344 C 420.425781 450.15625 419.488281 450.441406 418.523438 450.632812 C 417.558594 450.824219 416.585938 450.921875 415.601562 450.921875 Z M 415.601562 450.921875 " fill-opacity="1" fill-rule="nonzero"/><path fill="#465e7d" d="M 405.609375 430.933594 L 75.902344 430.933594 C 75.574219 430.933594 75.25 430.898438 74.929688 430.835938 C 74.605469 430.773438 74.292969 430.675781 73.992188 430.550781 C 73.6875 430.425781 73.398438 430.273438 73.128906 430.089844 C 72.855469 429.90625 72.601562 429.699219 72.371094 429.46875 C 72.136719 429.238281 71.929688 428.984375 71.75 428.710938 C 71.566406 428.4375 71.414062 428.152344 71.289062 427.847656 C 71.160156 427.542969 71.066406 427.230469 71.003906 426.910156 C 70.9375 426.589844 70.90625 426.261719 70.90625 425.933594 L 70.90625 206.066406 C 70.90625 205.738281 70.9375 205.414062 71.003906 205.089844 C 71.066406 204.769531 71.160156 204.457031 71.289062 204.152344 C 71.414062 203.851562 71.566406 203.5625 71.75 203.289062 C 71.929688 203.015625 72.136719 202.765625 72.371094 202.53125 C 72.601562 202.300781 72.855469 202.09375 73.128906 201.910156 C 73.398438 201.726562 73.6875 201.574219 73.992188 201.449219 C 74.292969 201.324219 74.605469 201.226562 74.929688 201.164062 C 75.25 201.101562 75.574219 201.066406 75.902344 201.066406 L 280.71875 201.066406 L 280.71875 211.0625 L 80.898438 211.0625 L 80.898438 420.9375 L 400.613281 420.9375 L 400.613281 211.0625 L 325.679688 211.0625 L 325.679688 201.066406 L 405.609375 201.066406 C 405.9375 201.066406 406.261719 201.101562 406.585938 201.164062 C 406.90625 201.226562 407.21875 201.324219 407.519531 201.449219 C 407.824219 201.574219 408.113281 201.726562 408.386719 201.910156 C 408.65625 202.09375 408.910156 202.300781 409.140625 202.53125 C 409.375 202.765625 409.582031 203.015625 409.761719 203.289062 C 409.945312 203.5625 410.097656 203.851562 410.226562 204.152344 C 410.351562 204.457031 410.445312 204.769531 410.507812 205.089844 C 410.574219 205.414062 410.605469 205.738281 410.605469 206.066406 L 410.605469 425.933594 C 410.605469 426.261719 410.574219 426.589844 410.507812 426.910156 C 410.445312 427.230469 410.351562 427.542969 410.226562 427.847656 C 410.097656 428.152344 409.945312 428.4375 409.761719 428.710938 C 409.582031 428.984375 409.375 429.238281 409.140625 429.46875 C 408.910156 429.699219 408.65625 429.90625 408.386719 430.089844 C 408.113281 430.273438 407.824219 430.425781 407.519531 430.550781 C 407.21875 430.675781 406.90625 430.773438 406.585938 430.835938 C 406.261719 430.898438 405.9375 430.933594 405.609375 430.933594 Z M 405.609375 430.933594 " fill-opacity="1" fill-rule="nonzero"/><path fill="#465e7d" d="M 50.925781 345.984375 C 49.941406 345.984375 48.964844 345.933594 47.988281 345.839844 C 47.011719 345.742188 46.039062 345.597656 45.078125 345.40625 C 44.113281 345.214844 43.164062 344.976562 42.222656 344.691406 C 41.285156 344.40625 40.363281 344.074219 39.453125 343.699219 C 38.546875 343.324219 37.660156 342.90625 36.796875 342.441406 C 35.929688 341.980469 35.089844 341.476562 34.273438 340.929688 C 33.457031 340.382812 32.667969 339.800781 31.910156 339.175781 C 31.152344 338.554688 30.425781 337.894531 29.730469 337.199219 C 29.035156 336.507812 28.378906 335.78125 27.753906 335.019531 C 27.132812 334.261719 26.546875 333.472656 26.003906 332.65625 C 25.457031 331.839844 24.953125 331 24.492188 330.132812 C 24.027344 329.269531 23.609375 328.382812 23.234375 327.472656 C 22.855469 326.566406 22.527344 325.644531 22.242188 324.703125 C 21.957031 323.765625 21.71875 322.8125 21.527344 321.847656 C 21.335938 320.886719 21.191406 319.917969 21.09375 318.9375 C 21 317.960938 20.953125 316.980469 20.953125 316 C 20.953125 315.019531 21 314.039062 21.09375 313.0625 C 21.191406 312.085938 21.335938 311.113281 21.527344 310.152344 C 21.71875 309.1875 21.957031 308.238281 22.242188 307.296875 C 22.527344 306.355469 22.855469 305.433594 23.234375 304.527344 C 23.609375 303.621094 24.027344 302.734375 24.492188 301.867188 C 24.953125 301 25.457031 300.160156 26.003906 299.34375 C 26.546875 298.527344 27.132812 297.738281 27.753906 296.980469 C 28.378906 296.21875 29.035156 295.492188 29.730469 294.800781 C 30.425781 294.105469 31.152344 293.445312 31.910156 292.824219 C 32.667969 292.199219 33.457031 291.617188 34.273438 291.070312 C 35.089844 290.523438 35.929688 290.019531 36.796875 289.558594 C 37.660156 289.09375 38.546875 288.675781 39.453125 288.300781 C 40.363281 287.925781 41.285156 287.59375 42.222656 287.308594 C 43.164062 287.023438 44.113281 286.785156 45.078125 286.59375 C 46.039062 286.402344 47.011719 286.257812 47.988281 286.164062 C 48.964844 286.066406 49.941406 286.019531 50.925781 286.019531 C 51.90625 286.019531 52.886719 286.066406 53.863281 286.164062 C 54.839844 286.257812 55.808594 286.402344 56.773438 286.59375 C 57.734375 286.785156 58.6875 287.023438 59.625 287.308594 C 60.566406 287.59375 61.488281 287.925781 62.394531 288.300781 C 63.300781 288.675781 64.1875 289.09375 65.054688 289.558594 C 65.917969 290.019531 66.761719 290.523438 67.578125 291.070312 C 68.394531 291.617188 69.179688 292.199219 69.941406 292.824219 C 70.699219 293.445312 71.425781 294.105469 72.117188 294.800781 C 72.8125 295.492188 73.472656 296.21875 74.09375 296.980469 C 74.71875 297.738281 75.300781 298.527344 75.847656 299.34375 C 76.390625 300.160156 76.894531 301 77.359375 301.867188 C 77.820312 302.734375 78.242188 303.621094 78.617188 304.527344 C 78.992188 305.433594 79.324219 306.355469 79.609375 307.296875 C 79.890625 308.238281 80.128906 309.1875 80.320312 310.152344 C 80.515625 311.113281 80.65625 312.085938 80.753906 313.0625 C 80.851562 314.039062 80.898438 315.019531 80.898438 316 C 80.898438 316.980469 80.847656 317.960938 80.75 318.9375 C 80.652344 319.914062 80.507812 320.882812 80.316406 321.847656 C 80.125 322.808594 79.886719 323.761719 79.601562 324.699219 C 79.316406 325.640625 78.984375 326.5625 78.609375 327.46875 C 78.234375 328.375 77.8125 329.261719 77.351562 330.128906 C 76.886719 330.992188 76.382812 331.835938 75.835938 332.648438 C 75.292969 333.464844 74.707031 334.253906 74.085938 335.011719 C 73.460938 335.769531 72.804688 336.496094 72.109375 337.191406 C 71.417969 337.886719 70.691406 338.542969 69.929688 339.167969 C 69.171875 339.789062 68.386719 340.375 67.570312 340.921875 C 66.753906 341.464844 65.914062 341.96875 65.046875 342.433594 C 64.183594 342.894531 63.296875 343.316406 62.390625 343.691406 C 61.484375 344.066406 60.5625 344.398438 59.621094 344.683594 C 58.683594 344.96875 57.734375 345.210938 56.769531 345.402344 C 55.808594 345.59375 54.839844 345.738281 53.863281 345.835938 C 52.886719 345.933594 51.90625 345.980469 50.925781 345.984375 Z M 50.925781 296.011719 C 50.269531 296.011719 49.617188 296.042969 48.964844 296.109375 C 48.316406 296.171875 47.667969 296.269531 47.027344 296.394531 C 46.382812 296.523438 45.75 296.683594 45.125 296.871094 C 44.496094 297.0625 43.882812 297.28125 43.277344 297.535156 C 42.671875 297.785156 42.082031 298.0625 41.503906 298.371094 C 40.929688 298.679688 40.367188 299.015625 39.824219 299.378906 C 39.277344 299.746094 38.753906 300.132812 38.25 300.550781 C 37.742188 300.964844 37.257812 301.402344 36.796875 301.867188 C 36.332031 302.328125 35.894531 302.8125 35.476562 303.320312 C 35.0625 303.824219 34.671875 304.351562 34.308594 304.894531 C 33.945312 305.441406 33.609375 306 33.300781 306.578125 C 32.992188 307.15625 32.714844 307.746094 32.464844 308.351562 C 32.214844 308.957031 31.992188 309.570312 31.804688 310.199219 C 31.613281 310.824219 31.453125 311.457031 31.328125 312.101562 C 31.199219 312.742188 31.101562 313.390625 31.039062 314.042969 C 30.972656 314.691406 30.941406 315.34375 30.941406 316 C 30.941406 316.65625 30.972656 317.308594 31.039062 317.960938 C 31.101562 318.609375 31.199219 319.257812 31.328125 319.898438 C 31.453125 320.542969 31.613281 321.175781 31.804688 321.800781 C 31.992188 322.429688 32.214844 323.042969 32.464844 323.648438 C 32.714844 324.253906 32.992188 324.84375 33.300781 325.421875 C 33.609375 326 33.945312 326.5625 34.308594 327.105469 C 34.671875 327.648438 35.0625 328.175781 35.476562 328.679688 C 35.894531 329.1875 36.332031 329.671875 36.796875 330.132812 C 37.257812 330.597656 37.742188 331.035156 38.25 331.453125 C 38.753906 331.867188 39.277344 332.257812 39.824219 332.621094 C 40.367188 332.984375 40.929688 333.320312 41.503906 333.628906 C 42.082031 333.9375 42.671875 334.214844 43.277344 334.46875 C 43.882812 334.71875 44.496094 334.9375 45.125 335.128906 C 45.75 335.316406 46.382812 335.476562 47.027344 335.605469 C 47.667969 335.730469 48.316406 335.828125 48.964844 335.890625 C 49.617188 335.957031 50.269531 335.988281 50.925781 335.988281 C 51.578125 335.988281 52.230469 335.957031 52.882812 335.890625 C 53.535156 335.828125 54.179688 335.730469 54.824219 335.605469 C 55.464844 335.476562 56.097656 335.316406 56.726562 335.128906 C 57.351562 334.9375 57.96875 334.71875 58.570312 334.46875 C 59.175781 334.214844 59.765625 333.9375 60.34375 333.628906 C 60.921875 333.320312 61.480469 332.984375 62.027344 332.621094 C 62.570312 332.257812 63.09375 331.867188 63.601562 331.453125 C 64.105469 331.035156 64.589844 330.597656 65.054688 330.132812 C 65.515625 329.671875 65.957031 329.1875 66.371094 328.679688 C 66.785156 328.175781 67.175781 327.648438 67.539062 327.105469 C 67.902344 326.5625 68.238281 326 68.546875 325.421875 C 68.855469 324.84375 69.136719 324.253906 69.386719 323.648438 C 69.636719 323.042969 69.855469 322.429688 70.046875 321.800781 C 70.238281 321.175781 70.394531 320.542969 70.523438 319.898438 C 70.652344 319.257812 70.746094 318.609375 70.8125 317.960938 C 70.875 317.308594 70.90625 316.65625 70.90625 316 C 70.90625 315.34375 70.875 314.691406 70.8125 314.039062 C 70.746094 313.390625 70.652344 312.742188 70.523438 312.101562 C 70.394531 311.457031 70.238281 310.824219 70.046875 310.199219 C 69.855469 309.570312 69.636719 308.957031 69.386719 308.351562 C 69.136719 307.746094 68.855469 307.15625 68.546875 306.578125 C 68.238281 306 67.902344 305.441406 67.539062 304.894531 C 67.175781 304.351562 66.785156 303.824219 66.371094 303.320312 C 65.957031 302.8125 65.515625 302.328125 65.054688 301.867188 C 64.589844 301.402344 64.105469 300.964844 63.601562 300.550781 C 63.09375 300.132812 62.570312 299.746094 62.027344 299.378906 C 61.480469 299.015625 60.921875 298.679688 60.34375 298.371094 C 59.765625 298.0625 59.175781 297.785156 58.570312 297.535156 C 57.96875 297.28125 57.351562 297.0625 56.726562 296.871094 C 56.097656 296.683594 55.464844 296.523438 54.824219 296.394531 C 54.179688 296.269531 53.535156 296.171875 52.882812 296.109375 C 52.230469 296.042969 51.578125 296.011719 50.925781 296.011719 Z M 50.925781 296.011719 " fill-opacity="1" fill-rule="nonzero"/><path fill="#465e7d" d="M 25.945312 216.058594 L 75.902344 216.058594 L 75.902344 226.054688 L 25.945312 226.054688 Z M 25.945312 216.058594 " fill-opacity="1" fill-rule="nonzero"/><path fill="#465e7d" d="M 25.945312 266.03125 L 75.902344 266.03125 L 75.902344 276.023438 L 25.945312 276.023438 Z M 25.945312 266.03125 " fill-opacity="1" fill-rule="nonzero"/><path fill="#465e7d" d="M 25.945312 355.976562 L 75.902344 355.976562 L 75.902344 365.96875 L 25.945312 365.96875 Z M 25.945312 355.976562 " fill-opacity="1" fill-rule="nonzero"/><path fill="#465e7d" d="M 25.945312 405.945312 L 75.902344 405.945312 L 75.902344 415.941406 L 25.945312 415.941406 Z M 25.945312 405.945312 " fill-opacity="1" fill-rule="nonzero"/><path fill="#465e7d" d="M 25.945312 241.042969 L 75.902344 241.042969 L 75.902344 251.039062 L 25.945312 251.039062 Z M 25.945312 241.042969 " fill-opacity="1" fill-rule="nonzero"/><path fill="#465e7d" d="M 25.945312 380.960938 L 75.902344 380.960938 L 75.902344 390.957031 L 25.945312 390.957031 Z M 25.945312 380.960938 " fill-opacity="1" fill-rule="nonzero"/><path fill="#465e7d" d="M 45.929688 221.054688 L 55.921875 221.054688 L 55.921875 271.027344 L 45.929688 271.027344 Z M 45.929688 221.054688 " fill-opacity="1" fill-rule="nonzero"/><path fill="#465e7d" d="M 45.929688 360.972656 L 55.921875 360.972656 L 55.921875 410.945312 L 45.929688 410.945312 Z M 45.929688 360.972656 " fill-opacity="1" fill-rule="nonzero"/><g clip-path="url(#a964f33e40)"><path fill="#465e7d" d="M 258.890625 276.625 C 258.5 276.621094 258.117188 276.578125 257.742188 276.488281 C 256.902344 276.289062 256.160156 275.898438 255.523438 275.316406 C 254.886719 274.734375 254.429688 274.035156 254.152344 273.214844 L 250.980469 263.722656 L 245.546875 258.289062 L 236.054688 255.109375 C 235.855469 255.042969 235.660156 254.964844 235.46875 254.871094 C 235.277344 254.78125 235.09375 254.675781 234.917969 254.558594 C 234.738281 254.445312 234.570312 254.316406 234.40625 254.179688 C 234.246094 254.042969 234.09375 253.894531 233.953125 253.738281 C 233.808594 253.582031 233.675781 253.417969 233.554688 253.246094 C 233.433594 253.070312 233.324219 252.890625 233.226562 252.703125 C 233.125 252.515625 233.039062 252.324219 232.964844 252.125 C 232.890625 251.925781 232.832031 251.722656 232.78125 251.515625 C 232.734375 251.3125 232.699219 251.101562 232.675781 250.890625 C 232.65625 250.679688 232.644531 250.46875 232.652344 250.257812 C 232.65625 250.046875 232.675781 249.835938 232.707031 249.625 C 232.738281 249.417969 232.78125 249.210938 232.839844 249.007812 C 232.898438 248.804688 232.96875 248.601562 233.050781 248.410156 C 233.136719 248.214844 233.230469 248.023438 233.335938 247.84375 C 233.445312 247.660156 233.5625 247.484375 233.691406 247.316406 C 233.824219 247.148438 233.960938 246.992188 234.113281 246.839844 L 403.660156 77.242188 C 403.894531 77.007812 404.144531 76.800781 404.417969 76.621094 C 404.691406 76.4375 404.980469 76.285156 405.28125 76.160156 C 405.585938 76.03125 405.898438 75.9375 406.21875 75.875 C 406.539062 75.808594 406.867188 75.777344 407.191406 75.777344 C 407.519531 75.777344 407.847656 75.808594 408.167969 75.875 C 408.488281 75.9375 408.800781 76.03125 409.105469 76.160156 C 409.40625 76.285156 409.695312 76.4375 409.96875 76.621094 C 410.242188 76.800781 410.492188 77.007812 410.726562 77.242188 L 431.957031 98.480469 C 432.1875 98.710938 432.394531 98.964844 432.578125 99.234375 C 432.757812 99.507812 432.914062 99.796875 433.039062 100.101562 C 433.164062 100.402344 433.257812 100.714844 433.324219 101.039062 C 433.386719 101.359375 433.417969 101.683594 433.417969 102.011719 C 433.417969 102.339844 433.386719 102.664062 433.324219 102.988281 C 433.257812 103.308594 433.164062 103.621094 433.039062 103.921875 C 432.914062 104.226562 432.757812 104.515625 432.578125 104.789062 C 432.394531 105.058594 432.1875 105.3125 431.957031 105.542969 L 262.421875 275.164062 C 261.953125 275.632812 261.414062 275.992188 260.800781 276.246094 C 260.1875 276.496094 259.550781 276.625 258.890625 276.625 Z M 246.902344 248.214844 L 249.832031 249.214844 C 250.578125 249.464844 251.226562 249.863281 251.78125 250.417969 L 258.875 257.515625 C 259.429688 258.070312 259.832031 258.71875 260.078125 259.464844 L 261.078125 262.402344 L 421.375 102.027344 L 407.207031 87.855469 Z M 246.902344 248.214844 " fill-opacity="1" fill-rule="nonzero"/></g><path fill="#465e7d" d="M 223.519531 290.765625 C 223.113281 290.765625 222.710938 290.714844 222.316406 290.617188 C 221.917969 290.519531 221.539062 290.375 221.179688 290.183594 C 220.820312 289.992188 220.488281 289.761719 220.183594 289.488281 C 219.878906 289.214844 219.613281 288.910156 219.382812 288.570312 C 219.15625 288.234375 218.96875 287.871094 218.828125 287.488281 C 218.6875 287.105469 218.597656 286.710938 218.554688 286.304688 C 218.507812 285.898438 218.515625 285.496094 218.570312 285.089844 C 218.625 284.683594 218.730469 284.292969 218.878906 283.914062 L 233.019531 248.535156 L 242.300781 252.242188 L 232.484375 276.804688 L 257.035156 266.984375 L 260.738281 276.269531 L 225.371094 290.410156 C 224.777344 290.648438 224.160156 290.765625 223.519531 290.765625 Z M 223.519531 290.765625 " fill-opacity="1" fill-rule="nonzero"/><path fill="#465e7d" d="M 382.496094 105.566406 L 389.5625 98.496094 L 410.742188 119.683594 L 403.675781 126.75 Z M 382.496094 105.566406 " fill-opacity="1" fill-rule="nonzero"/><path fill="#465e7d" d="M 371.90625 116.15625 L 378.96875 109.085938 L 400.152344 130.277344 L 393.089844 137.34375 Z M 371.90625 116.15625 " fill-opacity="1" fill-rule="nonzero"/><path fill="#465e7d" d="M 160.828125 121.117188 L 70.90625 121.117188 C 70.578125 121.117188 70.253906 121.082031 69.933594 121.019531 C 69.609375 120.957031 69.296875 120.859375 68.996094 120.734375 C 68.691406 120.609375 68.40625 120.457031 68.132812 120.273438 C 67.859375 120.089844 67.605469 119.882812 67.375 119.652344 C 67.144531 119.421875 66.9375 119.167969 66.753906 118.894531 C 66.570312 118.621094 66.417969 118.332031 66.292969 118.03125 C 66.167969 117.726562 66.070312 117.414062 66.007812 117.09375 C 65.945312 116.773438 65.910156 116.445312 65.910156 116.117188 L 65.910156 26.171875 C 65.910156 25.84375 65.945312 25.519531 66.007812 25.195312 C 66.070312 24.875 66.167969 24.5625 66.292969 24.257812 C 66.417969 23.957031 66.570312 23.667969 66.753906 23.394531 C 66.9375 23.121094 67.144531 22.871094 67.375 22.636719 C 67.605469 22.40625 67.859375 22.199219 68.132812 22.015625 C 68.40625 21.835938 68.691406 21.679688 68.996094 21.554688 C 69.296875 21.429688 69.609375 21.335938 69.933594 21.269531 C 70.253906 21.207031 70.578125 21.175781 70.90625 21.175781 L 160.828125 21.175781 C 161.15625 21.175781 161.480469 21.207031 161.800781 21.269531 C 162.125 21.335938 162.4375 21.429688 162.738281 21.554688 C 163.042969 21.679688 163.328125 21.835938 163.601562 22.015625 C 163.875 22.199219 164.128906 22.40625 164.359375 22.636719 C 164.589844 22.871094 164.796875 23.121094 164.980469 23.394531 C 165.164062 23.667969 165.316406 23.957031 165.441406 24.257812 C 165.566406 24.5625 165.664062 24.875 165.726562 25.195312 C 165.789062 25.519531 165.824219 25.84375 165.824219 26.171875 L 165.824219 116.117188 C 165.824219 116.445312 165.789062 116.773438 165.726562 117.09375 C 165.664062 117.414062 165.566406 117.726562 165.441406 118.03125 C 165.316406 118.332031 165.164062 118.621094 164.980469 118.894531 C 164.796875 119.167969 164.589844 119.421875 164.359375 119.652344 C 164.128906 119.882812 163.875 120.089844 163.601562 120.273438 C 163.328125 120.457031 163.042969 120.609375 162.738281 120.734375 C 162.4375 120.859375 162.125 120.957031 161.800781 121.019531 C 161.480469 121.082031 161.15625 121.117188 160.828125 121.117188 Z M 75.902344 111.121094 L 155.832031 111.121094 L 155.832031 31.167969 L 75.902344 31.167969 Z M 75.902344 111.121094 " fill-opacity="1" fill-rule="nonzero"/><path fill="#465e7d" d="M 160.828125 166.089844 C 159.191406 166.085938 157.558594 166.003906 155.933594 165.84375 C 154.304688 165.679688 152.6875 165.441406 151.085938 165.121094 C 149.480469 164.800781 147.898438 164.402344 146.332031 163.925781 C 144.765625 163.449219 143.230469 162.898438 141.71875 162.269531 C 140.207031 161.644531 138.730469 160.945312 137.289062 160.171875 C 135.847656 159.402344 134.445312 158.558594 133.085938 157.652344 C 131.726562 156.742188 130.414062 155.765625 129.148438 154.730469 C 127.886719 153.691406 126.675781 152.59375 125.519531 151.4375 C 124.363281 150.28125 123.265625 149.070312 122.226562 147.804688 C 121.191406 146.539062 120.214844 145.226562 119.308594 143.867188 C 118.398438 142.507812 117.558594 141.105469 116.785156 139.664062 C 116.015625 138.222656 115.316406 136.742188 114.6875 135.234375 C 114.0625 133.722656 113.511719 132.183594 113.035156 130.617188 C 112.558594 129.050781 112.160156 127.46875 111.839844 125.863281 C 111.519531 124.257812 111.277344 122.644531 111.117188 121.015625 C 110.957031 119.386719 110.875 117.753906 110.871094 116.117188 L 120.863281 116.117188 C 120.863281 117.429688 120.925781 118.734375 121.054688 120.035156 C 121.183594 121.339844 121.375 122.632812 121.628906 123.917969 C 121.886719 125.203125 122.203125 126.46875 122.582031 127.722656 C 122.964844 128.976562 123.402344 130.207031 123.90625 131.417969 C 124.40625 132.625 124.964844 133.808594 125.582031 134.964844 C 126.199219 136.117188 126.871094 137.238281 127.597656 138.328125 C 128.324219 139.417969 129.105469 140.46875 129.933594 141.480469 C 130.765625 142.492188 131.640625 143.460938 132.566406 144.386719 C 133.492188 145.3125 134.460938 146.191406 135.472656 147.019531 C 136.484375 147.851562 137.535156 148.628906 138.625 149.359375 C 139.710938 150.085938 140.832031 150.757812 141.988281 151.375 C 143.140625 151.992188 144.324219 152.550781 145.535156 153.050781 C 146.742188 153.554688 147.972656 153.992188 149.226562 154.375 C 150.480469 154.753906 151.746094 155.070312 153.03125 155.328125 C 154.3125 155.582031 155.605469 155.773438 156.910156 155.902344 C 158.210938 156.03125 159.519531 156.09375 160.828125 156.09375 C 162.136719 156.09375 163.441406 156.03125 164.746094 155.902344 C 166.046875 155.773438 167.339844 155.582031 168.625 155.328125 C 169.90625 155.070312 171.175781 154.753906 172.429688 154.375 C 173.679688 153.992188 174.910156 153.554688 176.121094 153.050781 C 177.332031 152.550781 178.511719 151.992188 179.667969 151.375 C 180.820312 150.757812 181.941406 150.085938 183.03125 149.359375 C 184.117188 148.628906 185.167969 147.851562 186.179688 147.019531 C 187.191406 146.191406 188.160156 145.3125 189.085938 144.386719 C 190.011719 143.460938 190.890625 142.492188 191.71875 141.480469 C 192.550781 140.46875 193.328125 139.417969 194.054688 138.328125 C 194.785156 137.238281 195.457031 136.117188 196.074219 134.964844 C 196.691406 133.808594 197.25 132.625 197.75 131.417969 C 198.25 130.207031 198.691406 128.976562 199.070312 127.722656 C 199.449219 126.46875 199.769531 125.203125 200.023438 123.917969 C 200.277344 122.632812 200.472656 121.339844 200.597656 120.035156 C 200.726562 118.734375 200.792969 117.429688 200.792969 116.117188 C 200.792969 114.808594 200.726562 113.503906 200.597656 112.199219 C 200.472656 110.898438 200.277344 109.605469 200.023438 108.320312 C 199.769531 107.035156 199.449219 105.765625 199.070312 104.515625 C 198.691406 103.261719 198.25 102.03125 197.75 100.820312 C 197.25 99.609375 196.691406 98.429688 196.074219 97.273438 C 195.457031 96.117188 194.785156 94.996094 194.054688 93.910156 C 193.328125 92.820312 192.550781 91.769531 191.71875 90.757812 C 190.890625 89.746094 190.011719 88.777344 189.085938 87.851562 C 188.160156 86.925781 187.191406 86.046875 186.179688 85.214844 C 185.167969 84.386719 184.117188 83.605469 183.03125 82.878906 C 181.941406 82.152344 180.820312 81.480469 179.667969 80.863281 C 178.511719 80.246094 177.332031 79.6875 176.121094 79.183594 C 174.910156 78.683594 173.679688 78.242188 172.429688 77.863281 C 171.175781 77.484375 169.90625 77.164062 168.625 76.910156 C 167.339844 76.65625 166.046875 76.464844 164.746094 76.335938 C 163.441406 76.207031 162.136719 76.140625 160.828125 76.140625 L 160.828125 66.148438 C 162.464844 66.148438 164.09375 66.230469 165.722656 66.390625 C 167.351562 66.550781 168.964844 66.792969 170.570312 67.109375 C 172.175781 67.429688 173.757812 67.828125 175.324219 68.304688 C 176.890625 68.78125 178.429688 69.332031 179.9375 69.957031 C 181.449219 70.582031 182.925781 71.28125 184.371094 72.054688 C 185.8125 72.824219 187.210938 73.667969 188.574219 74.574219 C 189.933594 75.484375 191.246094 76.457031 192.507812 77.496094 C 193.773438 78.535156 194.984375 79.632812 196.140625 80.789062 C 197.296875 81.949219 198.394531 83.160156 199.429688 84.421875 C 200.46875 85.6875 201.441406 87 202.351562 88.363281 C 203.257812 89.722656 204.097656 91.125 204.871094 92.566406 C 205.640625 94.011719 206.339844 95.488281 206.964844 97 C 207.589844 98.511719 208.140625 100.050781 208.617188 101.617188 C 209.089844 103.183594 209.488281 104.765625 209.804688 106.371094 C 210.125 107.976562 210.363281 109.59375 210.523438 111.222656 C 210.683594 112.851562 210.765625 114.480469 210.765625 116.117188 C 210.765625 117.753906 210.683594 119.386719 210.523438 121.015625 C 210.363281 122.644531 210.125 124.261719 209.804688 125.863281 C 209.488281 127.46875 209.089844 129.054688 208.617188 130.621094 C 208.140625 132.1875 207.589844 133.726562 206.964844 135.238281 C 206.339844 136.75 205.640625 138.226562 204.871094 139.667969 C 204.097656 141.113281 203.257812 142.515625 202.351562 143.875 C 201.441406 145.234375 200.46875 146.546875 199.429688 147.8125 C 198.394531 149.078125 197.296875 150.289062 196.140625 151.445312 C 194.984375 152.605469 193.773438 153.703125 192.507812 154.738281 C 191.246094 155.777344 189.933594 156.753906 188.574219 157.660156 C 187.210938 158.570312 185.8125 159.410156 184.371094 160.183594 C 182.925781 160.953125 181.449219 161.652344 179.9375 162.28125 C 178.429688 162.90625 176.890625 163.457031 175.324219 163.933594 C 173.757812 164.410156 172.175781 164.804688 170.570312 165.125 C 168.964844 165.445312 167.351562 165.6875 165.722656 165.847656 C 164.09375 166.007812 162.464844 166.089844 160.828125 166.089844 Z M 160.828125 166.089844 " fill-opacity="1" fill-rule="nonzero"/><path fill="#465e7d" d="M 67.375 29.703125 L 74.4375 22.636719 L 164.359375 112.585938 L 157.296875 119.652344 Z M 67.375 29.703125 " fill-opacity="1" fill-rule="nonzero"/><path fill="#465e7d" d="M 97.347656 29.707031 L 104.414062 22.640625 L 164.363281 82.605469 L 157.296875 89.671875 Z M 97.347656 29.707031 " fill-opacity="1" fill-rule="nonzero"/><path fill="#465e7d" d="M 67.375 59.6875 L 74.441406 52.621094 L 134.390625 112.585938 L 127.324219 119.65625 Z M 67.375 59.6875 " fill-opacity="1" fill-rule="nonzero"/><path fill="#465e7d" d="M 127.320312 29.703125 L 134.386719 22.636719 L 164.355469 52.617188 L 157.292969 59.683594 Z M 127.320312 29.703125 " fill-opacity="1" fill-rule="nonzero"/><path fill="#465e7d" d="M 67.375 89.667969 L 74.4375 82.601562 L 104.410156 112.582031 L 97.347656 119.648438 Z M 67.375 89.667969 " fill-opacity="1" fill-rule="nonzero"/><path fill="#465e7d" d="M 270.730469 166.089844 L 240.757812 166.089844 C 240.429688 166.089844 240.101562 166.058594 239.78125 165.992188 C 239.460938 165.929688 239.148438 165.835938 238.84375 165.707031 C 238.542969 165.582031 238.253906 165.429688 237.980469 165.246094 C 237.707031 165.066406 237.457031 164.855469 237.222656 164.625 C 236.992188 164.394531 236.785156 164.140625 236.601562 163.867188 C 236.421875 163.59375 236.265625 163.308594 236.140625 163.003906 C 236.015625 162.699219 235.921875 162.386719 235.855469 162.066406 C 235.792969 161.746094 235.761719 161.421875 235.761719 161.09375 L 235.761719 131.109375 C 235.761719 130.78125 235.792969 130.457031 235.855469 130.136719 C 235.921875 129.8125 236.015625 129.5 236.140625 129.199219 C 236.265625 128.894531 236.421875 128.605469 236.601562 128.332031 C 236.785156 128.0625 236.992188 127.808594 237.222656 127.578125 C 237.457031 127.34375 237.707031 127.136719 237.980469 126.953125 C 238.253906 126.773438 238.542969 126.617188 238.84375 126.492188 C 239.148438 126.367188 239.460938 126.273438 239.78125 126.207031 C 240.101562 126.144531 240.429688 126.113281 240.757812 126.113281 L 270.730469 126.113281 C 271.058594 126.113281 271.382812 126.144531 271.703125 126.207031 C 272.027344 126.273438 272.339844 126.367188 272.640625 126.492188 C 272.945312 126.617188 273.230469 126.773438 273.503906 126.953125 C 273.777344 127.136719 274.03125 127.34375 274.261719 127.578125 C 274.492188 127.808594 274.699219 128.0625 274.882812 128.332031 C 275.066406 128.605469 275.21875 128.894531 275.34375 129.199219 C 275.46875 129.5 275.566406 129.8125 275.628906 130.136719 C 275.691406 130.457031 275.726562 130.78125 275.726562 131.109375 L 275.726562 161.09375 C 275.726562 161.421875 275.691406 161.746094 275.628906 162.066406 C 275.566406 162.386719 275.46875 162.699219 275.34375 163.003906 C 275.21875 163.308594 275.066406 163.59375 274.882812 163.867188 C 274.699219 164.140625 274.492188 164.394531 274.261719 164.625 C 274.03125 164.855469 273.777344 165.066406 273.503906 165.246094 C 273.230469 165.429688 272.945312 165.582031 272.640625 165.707031 C 272.339844 165.835938 272.027344 165.929688 271.703125 165.992188 C 271.382812 166.058594 271.058594 166.089844 270.730469 166.089844 Z M 245.75 156.09375 L 265.734375 156.09375 L 265.734375 136.105469 L 245.75 136.105469 Z M 245.75 156.09375 " fill-opacity="1" fill-rule="nonzero"/><path fill="#465e7d" d="M 303.199219 131.109375 C 302.464844 131.109375 301.730469 131.074219 300.996094 131 C 300.265625 130.929688 299.539062 130.820312 298.816406 130.675781 C 298.09375 130.535156 297.378906 130.355469 296.675781 130.140625 C 295.96875 129.925781 295.277344 129.679688 294.597656 129.398438 C 293.917969 129.117188 293.253906 128.800781 292.605469 128.453125 C 291.953125 128.105469 291.324219 127.730469 290.710938 127.320312 C 290.097656 126.910156 289.507812 126.472656 288.941406 126.003906 C 288.371094 125.539062 287.824219 125.042969 287.304688 124.523438 C 286.785156 124.003906 286.289062 123.457031 285.824219 122.886719 C 285.355469 122.320312 284.917969 121.726562 284.507812 121.117188 C 284.101562 120.503906 283.722656 119.871094 283.375 119.222656 C 283.027344 118.574219 282.714844 117.910156 282.433594 117.226562 C 282.148438 116.546875 281.902344 115.855469 281.6875 115.152344 C 281.476562 114.445312 281.296875 113.730469 281.152344 113.011719 C 281.007812 112.289062 280.902344 111.558594 280.828125 110.828125 C 280.757812 110.09375 280.71875 109.359375 280.71875 108.621094 C 280.71875 107.886719 280.757812 107.152344 280.828125 106.417969 C 280.902344 105.6875 281.007812 104.957031 281.152344 104.234375 C 281.296875 103.515625 281.476562 102.800781 281.6875 102.09375 C 281.902344 101.390625 282.148438 100.699219 282.433594 100.019531 C 282.714844 99.335938 283.027344 98.671875 283.375 98.023438 C 283.722656 97.375 284.101562 96.742188 284.507812 96.128906 C 284.917969 95.519531 285.355469 94.925781 285.824219 94.359375 C 286.289062 93.789062 286.785156 93.242188 287.304688 92.722656 C 287.824219 92.203125 288.371094 91.707031 288.941406 91.242188 C 289.507812 90.773438 290.097656 90.335938 290.710938 89.925781 C 291.324219 89.515625 291.953125 89.136719 292.605469 88.792969 C 293.253906 88.445312 293.917969 88.128906 294.597656 87.847656 C 295.277344 87.566406 295.96875 87.316406 296.675781 87.105469 C 297.378906 86.890625 298.09375 86.710938 298.816406 86.566406 C 299.539062 86.425781 300.265625 86.316406 300.996094 86.246094 C 301.730469 86.171875 302.464844 86.136719 303.199219 86.136719 C 303.9375 86.136719 304.671875 86.171875 305.402344 86.246094 C 306.136719 86.316406 306.863281 86.425781 307.585938 86.566406 C 308.308594 86.710938 309.023438 86.890625 309.726562 87.105469 C 310.429688 87.316406 311.125 87.566406 311.804688 87.847656 C 312.484375 88.128906 313.148438 88.445312 313.796875 88.792969 C 314.445312 89.136719 315.078125 89.515625 315.691406 89.925781 C 316.300781 90.335938 316.894531 90.773438 317.460938 91.242188 C 318.03125 91.707031 318.574219 92.203125 319.097656 92.722656 C 319.617188 93.242188 320.109375 93.789062 320.578125 94.359375 C 321.046875 94.925781 321.484375 95.519531 321.890625 96.128906 C 322.300781 96.742188 322.679688 97.375 323.027344 98.023438 C 323.375 98.671875 323.6875 99.335938 323.96875 100.019531 C 324.25 100.699219 324.5 101.390625 324.710938 102.09375 C 324.925781 102.800781 325.105469 103.515625 325.25 104.234375 C 325.390625 104.957031 325.5 105.6875 325.574219 106.417969 C 325.644531 107.152344 325.679688 107.886719 325.679688 108.621094 C 325.679688 109.359375 325.644531 110.09375 325.570312 110.828125 C 325.496094 111.558594 325.390625 112.285156 325.246094 113.007812 C 325.101562 113.730469 324.921875 114.441406 324.707031 115.148438 C 324.492188 115.851562 324.246094 116.542969 323.960938 117.222656 C 323.679688 117.90625 323.367188 118.570312 323.019531 119.21875 C 322.671875 119.867188 322.292969 120.496094 321.882812 121.109375 C 321.476562 121.722656 321.039062 122.3125 320.570312 122.882812 C 320.101562 123.449219 319.609375 123.996094 319.089844 124.515625 C 318.570312 125.035156 318.023438 125.53125 317.457031 125.996094 C 316.886719 126.464844 316.296875 126.902344 315.683594 127.3125 C 315.070312 127.722656 314.441406 128.101562 313.792969 128.445312 C 313.144531 128.792969 312.480469 129.109375 311.800781 129.390625 C 311.121094 129.671875 310.425781 129.921875 309.722656 130.136719 C 309.019531 130.351562 308.304688 130.527344 307.585938 130.671875 C 306.863281 130.816406 306.136719 130.925781 305.402344 131 C 304.671875 131.070312 303.9375 131.109375 303.199219 131.109375 Z M 303.199219 96.128906 C 302.378906 96.128906 301.570312 96.210938 300.765625 96.371094 C 299.960938 96.53125 299.179688 96.765625 298.421875 97.082031 C 297.664062 97.394531 296.945312 97.78125 296.261719 98.234375 C 295.582031 98.691406 294.949219 99.210938 294.371094 99.789062 C 293.789062 100.371094 293.273438 101 292.816406 101.683594 C 292.359375 102.363281 291.976562 103.085938 291.664062 103.84375 C 291.347656 104.601562 291.113281 105.382812 290.953125 106.1875 C 290.792969 106.992188 290.710938 107.800781 290.710938 108.621094 C 290.710938 109.441406 290.792969 110.253906 290.953125 111.058594 C 291.113281 111.863281 291.347656 112.644531 291.664062 113.402344 C 291.976562 114.160156 292.359375 114.882812 292.816406 115.5625 C 293.273438 116.246094 293.789062 116.875 294.371094 117.457031 C 294.949219 118.035156 295.582031 118.554688 296.261719 119.011719 C 296.945312 119.464844 297.664062 119.851562 298.421875 120.164062 C 299.179688 120.480469 299.960938 120.714844 300.765625 120.875 C 301.570312 121.035156 302.378906 121.117188 303.199219 121.117188 C 304.019531 121.117188 304.832031 121.035156 305.636719 120.875 C 306.441406 120.714844 307.222656 120.480469 307.980469 120.164062 C 308.738281 119.851562 309.457031 119.464844 310.140625 119.011719 C 310.820312 118.554688 311.453125 118.035156 312.03125 117.457031 C 312.613281 116.875 313.128906 116.246094 313.585938 115.5625 C 314.039062 114.882812 314.425781 114.160156 314.738281 113.402344 C 315.050781 112.644531 315.289062 111.863281 315.449219 111.058594 C 315.609375 110.253906 315.691406 109.441406 315.691406 108.621094 C 315.691406 107.800781 315.609375 106.992188 315.449219 106.1875 C 315.289062 105.382812 315.050781 104.601562 314.738281 103.84375 C 314.425781 103.085938 314.039062 102.363281 313.585938 101.683594 C 313.128906 101 312.613281 100.371094 312.03125 99.789062 C 311.453125 99.210938 310.820312 98.691406 310.140625 98.234375 C 309.457031 97.78125 308.738281 97.394531 307.980469 97.082031 C 307.222656 96.765625 306.441406 96.53125 305.636719 96.371094 C 304.832031 96.210938 304.019531 96.128906 303.199219 96.128906 Z M 303.199219 96.128906 " fill-opacity="1" fill-rule="nonzero"/><path fill="#465e7d" d="M 275.726562 81.140625 L 235.761719 81.140625 C 234.839844 81.140625 233.984375 80.902344 233.191406 80.429688 C 232.402344 79.957031 231.789062 79.3125 231.355469 78.5 C 230.921875 77.6875 230.726562 76.820312 230.769531 75.898438 C 230.816406 74.980469 231.09375 74.136719 231.605469 73.367188 L 251.585938 43.386719 C 251.828125 43.0625 252.105469 42.773438 252.414062 42.511719 C 252.722656 42.253906 253.058594 42.035156 253.417969 41.855469 C 253.78125 41.671875 254.15625 41.535156 254.546875 41.445312 C 254.941406 41.351562 255.339844 41.304688 255.742188 41.304688 C 256.144531 41.304688 256.542969 41.351562 256.9375 41.445312 C 257.328125 41.535156 257.707031 41.671875 258.066406 41.855469 C 258.429688 42.035156 258.761719 42.253906 259.074219 42.511719 C 259.382812 42.773438 259.65625 43.0625 259.898438 43.386719 L 279.882812 73.367188 C 280.394531 74.136719 280.671875 74.980469 280.714844 75.898438 C 280.761719 76.820312 280.566406 77.6875 280.128906 78.5 C 279.695312 79.3125 279.082031 79.957031 278.292969 80.429688 C 277.503906 80.902344 276.648438 81.140625 275.726562 81.140625 Z M 245.09375 71.144531 L 266.394531 71.144531 L 255.742188 55.15625 Z M 245.09375 71.144531 " fill-opacity="1" fill-rule="nonzero"/><path fill="#465e7d" d="M 177.277344 244.578125 L 184.339844 237.511719 L 214.3125 267.492188 L 207.25 274.558594 Z M 177.277344 244.578125 " fill-opacity="1" fill-rule="nonzero"/><path fill="#465e7d" d="M 237.222656 304.542969 L 244.289062 297.476562 L 284.253906 337.453125 L 277.1875 344.519531 Z M 237.222656 304.542969 " fill-opacity="1" fill-rule="nonzero"/><path fill="#465e7d" d="M 147.304688 244.578125 L 154.367188 237.511719 L 254.277344 337.453125 L 247.214844 344.519531 Z M 147.304688 244.578125 " fill-opacity="1" fill-rule="nonzero"/><path fill="#465e7d" d="M 152.300781 279.558594 L 159.363281 272.492188 L 259.273438 372.429688 L 252.210938 379.496094 Z M 152.300781 279.558594 " fill-opacity="1" fill-rule="nonzero"/><path fill="#465e7d" d="M 152.300781 309.539062 L 159.363281 302.472656 L 204.324219 347.445312 L 197.257812 354.511719 Z M 152.300781 309.539062 " fill-opacity="1" fill-rule="nonzero"/></g></g></g><g mask="url(#98090c45d4)"><g transform="matrix(1, 0, 0, 1, 204, 136)"><g clip-path="url(#8c491ca8d9)"><g clip-path="url(#ad27f67deb)"><path fill="#465e7d" d="M 26.679688 33 L 33.675781 28.207031 L 20.753906 9.398438 L 13.742188 14.191406 Z M 78.121094 107.933594 L 87.476562 114.058594 L 85.132812 103.140625 L 37.824219 34.234375 L 30.8125 39.042969 Z M 6.582031 10.226562 L 19.632812 1.292969 C 21.308594 0.140625 23.585938 0.578125 24.726562 2.234375 L 91.59375 99.601562 C 91.855469 99.992188 92.050781 100.429688 92.148438 100.882812 L 96.523438 121.238281 C 96.832031 122.699219 96.246094 124.195312 95.011719 125.039062 C 94.394531 125.460938 93.660156 125.671875 92.945312 125.671875 C 92.246094 125.671875 91.546875 125.476562 90.925781 125.070312 L 73.496094 113.652344 C 73.089844 113.390625 72.75 113.066406 72.488281 112.660156 L 22.691406 40.164062 L 5.636719 15.3125 C 4.480469 13.636719 4.90625 11.363281 6.582031 10.226562 " fill-opacity="1" fill-rule="nonzero"/></g><g clip-path="url(#03cd2c0a14)"><path fill="#465e7d" d="M 106.175781 133.324219 C 111.839844 138.359375 116.132812 140.339844 118.980469 139.203125 C 122.269531 137.886719 128.175781 130.902344 130.78125 98.871094 C 131.121094 94.644531 132.164062 81.765625 140.886719 79.832031 C 156.328125 76.386719 180.722656 116.902344 187.820312 129.390625 C 188.8125 131.144531 188.195312 133.386719 186.4375 134.378906 C 184.679688 135.371094 182.433594 134.753906 181.441406 133 C 168.128906 109.558594 149.285156 85.535156 142.464844 86.980469 C 140.804688 87.351562 138.785156 90.828125 138.070312 99.472656 C 135.761719 128.058594 130.699219 142.402344 121.699219 145.992188 C 120.203125 146.59375 118.722656 146.855469 117.242188 146.855469 C 111.171875 146.855469 105.410156 142.453125 101.292969 138.78125 C 99.78125 137.449219 99.648438 135.125 101 133.617188 C 102.351562 132.121094 104.660156 131.976562 106.175781 133.324219 " fill-opacity="1" fill-rule="nonzero"/></g></g></g></g></svg>